Coordinates
version=1
nRows=7
nColumns=40
inDegrees=yes

Units are S.I. units (second, meters, Newtons, ...)
If the header above contains a line with 'inDegrees', this indicates whether rotational values are in degrees (yes) or radians (no).

endheader
time	pelvis_tilt	pelvis_list	pelvis_rotation	pelvis_tx	pelvis_ty	pelvis_tz	hip_flexion_r	hip_adduction_r	hip_rotation_r	knee_angle_r	knee_angle_r_beta	ankle_angle_r	subtalar_angle_r	mtp_angle_r	hip_flexion_l	hip_adduction_l	hip_rotation_l	knee_angle_l	knee_angle_l_beta	ankle_angle_l	subtalar_angle_l	mtp_angle_l	lumbar_extension	lumbar_bending	lumbar_rotation	arm_flex_r	arm_add_r	arm_rot_r	elbow_flex_r	pro_sup_r	wrist_flex_r	wrist_dev_r	arm_flex_l	arm_add_l	arm_rot_l	elbow_flex_l	pro_sup_l	wrist_flex_l	wrist_dev_l
      5.67500000	    -17.29193123	     -1.35701377	     -0.27597633	     -0.36211089	      0.86901517	     -0.75498648	     56.97039347	      0.17197085	    -14.20310454	     74.61244224	      1.30223278	     23.49577670	      0.00000000	      0.00000000	     33.05458347	    -23.76270680	     -7.05335786	    105.06430721	      1.83371809	    -33.94254340	      0.00000000	      0.00000000	     -3.15302819	      8.90413738	      9.79532594	     89.96764492	    -17.18662950	     12.99962733	     48.49985159	     76.84797844	      0.00000000	      0.00000000	     89.96263286	     -8.80469094	     14.03297797	     46.52221182	     82.32791012	      0.00000000	      0.00000000
      5.68000000	    -17.39751968	     -1.47073047	     -0.32244350	     -0.36246970	      0.86844287	     -0.75477343	     57.12836519	      0.28462937	    -14.27592365	     74.64354650	      1.30277565	     23.47112238	      0.00000000	      0.00000000	     33.21119272	    -23.99688605	     -6.96811712	    105.09040795	      1.83417363	    -34.00004031	      0.00000000	      0.00000000	     -3.09862989	      9.02922871	      9.87120402	     89.96773886	    -17.17247265	     12.96247884	     48.54395594	     76.87171106	      0.00000000	      0.00000000	     89.96270930	     -8.77760946	     13.96355039	     46.54864426	     82.19534300	      0.00000000	      0.00000000
      5.68500000	    -17.40571660	     -1.61451477	     -0.41372719	     -0.36253674	      0.86796276	     -0.75439191	     57.16430325	      0.45174216	    -14.38557182	     74.69309324	      1.30364041	     23.48699082	      0.00000000	      0.00000000	     33.22408878	    -24.28681651	     -6.92258232	    105.11540137	      1.83460985	    -34.07085408	      0.00000000	      0.00000000	     -3.13243853	      9.18139520	      9.97872128	     89.96782049	    -17.17990146	     13.04911172	     48.59919498	     76.12773855	      0.00000000	      0.00000000	     89.96277042	     -8.76206084	     13.85031819	     46.54130153	     82.51706285	      0.00000000	      0.00000000
      5.69000000	    -17.43934953	     -1.65876128	     -0.46320884	     -0.36274258	      0.86758504	     -0.75428085	     57.23406816	      0.50650639	    -14.42208959	     74.73492426	      1.30437049	     23.53605293	      0.00000000	      0.00000000	     33.27041289	    -24.41272331	     -6.89924693	    105.08716776	      1.83411708	    -34.17129950	      0.00000000	      0.00000000	     -3.16625261	      9.24470521	     10.00383632	     89.96792913	    -17.12527268	     13.36794742	     48.70170217	     73.32119875	      0.00000000	      0.00000000	     89.96281302	     -8.83289851	     14.17906036	     46.66237487	     79.13467344	      0.00000000	      0.00000000
      5.69500000	    -17.48716281	     -1.66359444	     -0.50858294	     -0.36304569	      0.86717898	     -0.75415312	     57.33727568	      0.53261951	    -14.42632960	     74.79417312	      1.30540458	     23.55201717	      0.00000000	      0.00000000	     33.33836282	    -24.50066483	     -6.88661270	    105.09277865	      1.83421501	    -34.37702992	      0.00000000	      0.00000000	     -3.16838504	      9.24790543	     10.06775297	     89.96795085	    -17.13041485	     13.76434120	     48.86017464	     69.05533547	      0.00000000	      0.00000000	     89.96281542	     -8.83324161	     14.68047766	     46.80177851	     73.85578734	      0.00000000	      0.00000000
      5.70000000	    -17.60975069	     -1.75969234	     -0.59854358	     -0.36341226	      0.86666522	     -0.75388709	     57.51257846	      0.67766531	    -14.45621624	     74.81186457	      1.30571336	     23.56568437	      0.00000000	      0.00000000	     33.50861081	    -24.72247157	     -6.84914398	    105.12477084	      1.83477338	    -34.43744308	      0.00000000	      0.00000000	     -3.09591303	      9.35924330	     10.19985866	     89.96800602	    -17.14425700	     14.02322760	     48.97478136	     66.59117758	      0.00000000	      0.00000000	     89.96288030	     -8.78855801	     14.88671229	     46.86718330	     71.08305084	      0.00000000	      0.00000000
      5.70500000	    -17.69159280	     -1.82735076	     -0.67929585	     -0.36362162	      0.86611477	     -0.75372552	     57.65005722	      0.76937574	    -14.51064333	     74.87492373	      1.30681395	     23.54979593	      0.00000000	      0.00000000	     33.60513719	    -24.90408564	     -6.83111184	    105.14524569	      1.83513073	    -34.52644427	      0.00000000	      0.00000000	     -3.06592549	      9.44243762	     10.25708382	     89.96808400	    -17.08003421	     14.22285190	     49.05897640	     64.48943340	      0.00000000	      0.00000000	     89.96278709	     -8.81418606	     14.99261214	     46.94274678	     68.90690494	      0.00000000	      0.00000000
